<svg xmlns="http://www.w3.org/2000/svg" version="1.1" xmlns:xlink="http://www.w3.org/1999/xlink" viewBox="0 0 200 200"><rect width="200" height="200" fill="url('#gradient')"></rect><defs><linearGradient id="gradient" gradientTransform="rotate(45 0.5 0.5)"><stop offset="0%" stop-color="#dfffdb"></stop><stop offset="100%" stop-color="#0b6e00"></stop></linearGradient></defs><g><g fill="#5f655f" transform="matrix(4.014811587889349,0,0,4.014811587889349,8.584185154368953,128.54468579241404)" stroke="#da9758" stroke-width="0.2"><path d="M12.24-14.22L12.24-11.57L7.97-11.57L7.97 0L4.54 0L4.54-11.57L0.35-11.57L0.35-14.22L12.24-14.22ZM25.57-14.22L25.57 0L22.16 0L22.16-5.94L17.11-5.94L17.11 0L13.68 0L13.68-14.22L17.11-14.22L17.11-8.57L22.16-8.57L22.16-14.22L25.57-14.22ZM36.82 0L35.99-2.66L31.29-2.66L30.47 0L26.81 0L32.02-14.22L35.24-14.22L40.50 0L36.82 0ZM33.63-10.23L32.11-5.30L35.17-5.30L33.63-10.23ZM45.19-14.22L45.19 0L41.77 0L41.77-14.22L45.19-14.22Z"></path></g></g></svg>